<?xml version="1.0" encoding="UTF-8"?>
<svg width="267px" height="200px" viewBox="0 0 267 200" version="1.1" xmlns="http://www.w3.org/2000/svg" xmlns:xlink="http://www.w3.org/1999/xlink">
    <!-- Generator: Sketch 49 (51002) - http://www.bohemiancoding.com/sketch -->
    <title>logo-sass</title>
    <desc>Created with Sketch.</desc>
    <defs></defs>
    <g id="Page-1" stroke="none" stroke-width="1" fill="none" fill-rule="evenodd">
        <g id="Desktop-HD" transform="translate(-1076.000000, -588.000000)" fill="#E5E5E5" fill-rule="nonzero">
            <g id="logo-sass" transform="translate(1076.000000, 588.000000)">
                <path d="M229.639178,114.972186 C220.335266,115.020898 212.249143,117.261631 205.478232,120.574018 C202.993942,115.654148 200.509651,111.270106 200.071247,108.055141 C199.584131,104.304349 198.999592,102.014905 199.584131,97.5334391 C200.16867,93.0519733 202.799095,86.6707559 202.750384,86.18364 C202.701672,85.6965242 202.165845,83.4070797 196.807571,83.3583682 C191.449296,83.3096566 186.821696,84.3813114 186.285868,85.7939474 C185.750041,87.2065833 184.727098,90.4215478 184.045136,93.7339355 C183.119615,98.6050939 173.328587,115.995129 167.726755,125.104196 C165.924426,121.54825 164.365656,118.430709 164.024675,115.946418 C163.537559,112.195626 162.95302,109.906181 163.537559,105.424716 C164.122098,100.94325 166.752523,94.5620324 166.703812,94.0749166 C166.6551,93.5878008 166.119273,91.2983563 160.760998,91.2496447 C155.402724,91.2009332 150.775124,92.272588 150.239296,93.6852239 C149.703469,95.0978599 149.11893,98.4102476 147.998564,101.625212 C146.878197,104.840177 133.872204,133.872281 130.462393,141.373865 C128.708776,145.22208 127.198717,148.290909 126.127062,150.385508 C126.127062,150.385508 126.127062,150.385508 126.127062,150.385508 C126.127062,150.385508 126.078351,150.531642 125.932216,150.7752 C125.006696,152.577529 124.470869,153.55176 124.470869,153.55176 C124.470869,153.55176 124.470869,153.55176 124.470869,153.600472 C123.740195,154.915685 122.960809,156.133474 122.571117,156.133474 C122.278847,156.133474 121.74302,152.62624 122.66854,147.852505 C124.617003,137.769207 129.244604,122.084077 129.195892,121.54825 C129.195892,121.25598 130.072701,118.528132 126.175774,117.115496 C122.37627,115.70286 121.012346,118.041016 120.671365,118.041016 C120.330384,118.041016 120.086826,118.869113 120.086826,118.869113 C120.086826,118.869113 124.324734,101.235519 112.000703,101.235519 C104.304273,101.235519 93.6851475,109.662623 88.4242965,117.261631 C85.1119088,119.063959 78.0487291,122.912174 70.4984336,127.052659 C67.6244502,128.660141 64.6530436,130.267623 61.8764833,131.777682 C61.681637,131.582836 61.4867906,131.339278 61.2919443,131.144432 C46.3861996,115.215744 18.8154432,103.963368 19.9845212,82.5789828 C20.4229255,74.7851294 23.1020626,54.3262642 72.9340128,29.4833564 C113.949166,9.26804914 146.585928,14.8698813 152.236471,27.2913352 C160.322594,45.0223517 134.749013,77.9513824 92.3699348,82.7251176 C76.1976889,84.5274462 67.7218734,78.2923634 65.5785637,75.9542074 C63.3378308,73.5186282 62.9968497,73.3724935 62.1687528,73.8596093 C60.8048285,74.5902831 61.681637,76.7823043 62.1687528,78.0488055 C63.435254,81.3611932 68.6473935,87.2065833 77.4641901,90.0805667 C85.2580435,92.6135691 104.20685,94.026205 127.150006,85.1606968 C152.82101,75.2235337 172.890183,47.6040656 166.996081,24.4660633 C161.10198,0.987079889 122.132713,-6.75806194 85.2580435,6.34535411 C63.3378308,14.1392075 39.5665779,26.4145267 22.468812,42.3919262 C2.15608151,61.3894438 -1.05888302,77.9026708 0.256329745,84.8197157 C4.98135338,109.370354 38.8359041,125.347753 52.3777245,137.184668 C51.6957623,137.574361 51.0625117,137.915342 50.5266843,138.207612 C43.7557741,141.568711 17.9386347,155.06182 11.5087056,169.334314 C4.20196804,185.506559 12.6777836,197.099916 18.2796158,198.658687 C35.6696512,203.481134 53.5468025,194.810472 63.1429845,180.489266 C72.7391665,166.168061 71.5700885,147.560236 67.1373344,139.035708 C67.0886228,138.938285 67.0399112,138.840862 66.942488,138.743439 C68.696105,137.720496 70.4984336,136.648841 72.2520507,135.625898 C75.7105731,133.580011 79.120384,131.680259 82.043079,130.121489 C80.3868852,134.651666 79.1690956,140.058652 78.5845566,147.852505 C77.8538828,157.010283 81.6046748,168.895909 86.5245447,173.572221 C88.716566,175.618108 91.2982799,175.66682 92.9544738,175.66682 C98.7024407,175.66682 101.284155,170.893084 104.158138,165.242541 C107.665372,158.325496 110.831625,150.288084 110.831625,150.288084 C110.831625,150.288084 106.885987,172.013451 117.602535,172.013451 C121.499462,172.013451 125.4451,166.947446 127.198717,164.365732 C127.198717,164.414444 127.198717,164.414444 127.198717,164.414444 C127.198717,164.414444 127.29614,164.268309 127.490987,163.927328 C127.880679,163.294077 128.124237,162.904385 128.124237,162.904385 C128.124237,162.904385 128.124237,162.855673 128.124237,162.806961 C129.683008,160.079113 133.190242,153.892742 138.402382,143.614597 C145.12458,130.365047 151.603221,113.803108 151.603221,113.803108 C151.603221,113.803108 152.18776,117.84617 154.184935,124.568368 C155.354013,128.514006 157.789592,132.849337 159.738055,137.038534 C158.179285,139.230555 157.205053,140.448344 157.205053,140.448344 C157.205053,140.448344 157.205053,140.448344 157.253764,140.497056 C155.987263,142.15325 154.623339,143.955578 153.11328,145.709195 C147.803717,152.041701 141.471211,159.299727 140.594403,161.394325 C139.57146,163.878616 139.815017,165.680945 141.763481,167.142292 C143.176117,168.213947 145.709119,168.360082 148.290833,168.213947 C153.064568,167.872966 156.425668,166.703888 158.081861,165.973214 C160.663575,165.047694 163.683694,163.635058 166.508965,161.54046 C171.721105,157.692245 174.887358,152.187836 174.595088,144.92981 C174.448954,140.93546 173.133741,136.94111 171.526259,133.190318 C172.013374,132.508356 172.451779,131.826394 172.938894,131.144432 C181.171152,119.112671 187.55237,105.911831 187.55237,105.911831 C187.55237,105.911831 188.136909,109.954893 190.134084,116.677092 C191.108315,120.086902 193.10549,123.788983 194.859107,127.39364 C187.113965,133.677434 182.34023,140.984172 180.635325,145.757907 C177.566495,154.623415 179.953363,158.617765 184.48354,159.543285 C186.529426,159.98169 189.452121,159.007458 191.595431,158.081938 C194.32328,157.205129 197.538244,155.69507 200.607074,153.454337 C205.819214,149.606122 210.836507,144.247848 210.544237,136.989822 C210.398102,133.677434 209.521294,130.413758 208.303504,127.247505 C214.879568,124.519657 223.355384,123.009597 234.169355,124.276099 C257.356069,127.003947 261.934958,141.471288 261.05815,147.560236 C260.181341,153.649184 255.310183,156.961571 253.7027,157.984515 C252.095218,159.007458 251.559391,159.348439 251.705526,160.079113 C251.900372,161.150768 252.679757,161.102056 254.043682,160.90721 C255.943433,160.566229 266.221578,155.98734 266.659982,144.783675 C267.390656,130.46247 253.751412,114.826051 229.639178,114.972186 Z M50.7702422,175.277127 C43.0738119,183.655519 32.3572635,186.821772 27.729663,184.142635 C22.7610815,181.268652 24.7095448,168.895909 34.1595921,160.030401 C39.907559,154.623415 47.3117197,149.606122 52.2315897,146.537292 C53.3519561,145.85533 55.00815,144.881099 57.0053249,143.663309 C57.346306,143.468463 57.5411523,143.371039 57.5411523,143.371039 C57.930845,143.127482 58.3205377,142.883924 58.7102304,142.640366 C62.1687528,155.305377 58.8563651,166.46033 50.7702422,175.277127 Z M106.788564,137.184668 C104.109426,143.712021 98.5075943,160.420094 95.0977835,159.494574 C92.1750884,158.715188 90.3727598,146.050177 94.5132445,133.5313 C96.6078426,127.247505 101.040597,119.745921 103.622311,116.823226 C107.811507,112.146914 112.439107,110.588144 113.559474,112.487895 C114.97211,114.972186 108.444757,133.092895 106.788564,137.184668 Z M153.015857,159.299727 C151.89549,159.884266 150.823835,160.273959 150.33672,159.98169 C149.995738,159.786843 150.823835,159.007458 150.823835,159.007458 C150.823835,159.007458 156.620514,152.772375 158.909958,149.947103 C160.225171,148.290909 161.783942,146.342446 163.440136,144.150425 C163.440136,144.345271 163.440136,144.588829 163.440136,144.783675 C163.440136,152.236548 156.230821,157.253841 153.015857,159.299727 Z M188.672736,151.164893 C187.844639,150.580354 187.990774,148.631891 190.767334,142.542943 C191.838989,140.156075 194.371991,136.161725 198.707322,132.31351 C199.194438,133.872281 199.535419,135.38234 199.486708,136.794976 C199.437996,146.196311 192.715797,149.703545 188.672736,151.164893 Z" id="Shape"></path>
            </g>
        </g>
    </g>
</svg>