<?xml version="1.0" encoding="UTF-8"?>
<svg width="142px" height="200px" viewBox="0 0 142 200" version="1.1" xmlns="http://www.w3.org/2000/svg" xmlns:xlink="http://www.w3.org/1999/xlink">
    <!-- Generator: Sketch 49 (51002) - http://www.bohemiancoding.com/sketch -->
    <title>logo-html5</title>
    <desc>Created with Sketch.</desc>
    <defs></defs>
    <g id="Page-1" stroke="none" stroke-width="1" fill="none" fill-rule="evenodd">
        <g id="Desktop-HD" transform="translate(-1097.000000, -203.000000)" fill-rule="nonzero">
            <g id="logo-html5" transform="translate(1097.000000, 203.000000)">
                <polygon id="Shape" fill="#E0E0E0" points="13.1421875 183.936328 0.247265625 39.3046875 141.940234 39.3046875 129.031641 183.913672 71.0070312 200"></polygon>
                <polygon id="Shape" fill="#E5E5E5" points="71.09375 187.704297 117.980469 174.705469 129.011719 51.1304688 71.09375 51.1304688"></polygon>
                <g id="Group" transform="translate(26.562500, 68.750000)" fill="#EEEEEE">
                    <polygon id="Shape" points="44.53125 36.0222656 21.0585938 36.0222656 19.4375 17.8578125 44.53125 17.8578125 44.53125 0.119140625 44.4699219 0.119140625 0.0515625 0.119140625 0.476171875 4.878125 4.8359375 53.7605469 44.53125 53.7605469"></polygon>
                    <polygon id="Shape" points="44.53125 82.0910156 44.4535156 82.1117188 24.6980469 76.7773438 23.4351562 62.6300781 13.8355469 62.6300781 5.62851562 62.6300781 8.11367187 90.4820313 44.4496094 100.569141 44.53125 100.546484"></polygon>
                </g>
                <g id="Group" transform="translate(13.281250, 0.000000)" fill="#E5E5E5">
                    <polygon id="Shape" points="0.14921875 0 9.16367188 0 9.16367188 8.90625 17.4097656 8.90625 17.4097656 0 26.4246094 0 26.4246094 26.9703125 17.4101562 26.9703125 17.4101562 17.9390625 9.1640625 17.9390625 9.1640625 26.9703125 0.149609375 26.9703125 0.149609375 0"></polygon>
                    <polygon id="Shape" points="38.2789062 8.94375 30.3429688 8.94375 30.3429688 0 55.2335937 0 55.2335937 8.94375 47.2941406 8.94375 47.2941406 26.9703125 38.2792969 26.9703125 38.2792969 8.94375"></polygon>
                    <polygon id="Shape" points="59.1839844 0 68.5835938 0 74.365625 9.4765625 80.1417969 0 89.5449219 0 89.5449219 26.9703125 80.5675781 26.9703125 80.5675781 13.6023438 74.365625 23.1917969 74.2105469 23.1917969 68.0042969 13.6023438 68.0042969 26.9703125 59.1839844 26.9703125 59.1839844 0"></polygon>
                    <polygon id="Shape" points="94.03125 0 103.048438 0 103.048438 18.0554687 115.725391 18.0554687 115.725391 26.9703125 94.03125 26.9703125"></polygon>
                </g>
                <g id="Group" transform="translate(70.703125, 68.750000)" fill="#EEEEEE">
                    <polygon id="Shape" points="0.329296875 36.0222656 0.329296875 53.7605469 22.1722656 53.7605469 20.1132813 76.7660156 0.329296875 82.1058594 0.329296875 100.560547 36.6941406 90.4820313 36.9609375 87.4851563 41.1292969 40.7855469 41.5621094 36.0222656 36.7820312 36.0222656"></polygon>
                    <polygon id="Shape" points="0.329296875 0.119140625 0.329296875 11.1363281 0.329296875 17.8144531 0.329296875 17.8578125 43.1191406 17.8578125 43.1191406 17.8578125 43.1761719 17.8578125 43.5320312 13.8707031 44.3402344 4.878125 44.7644531 0.119140625"></polygon>
                </g>
            </g>
        </g>
    </g>
</svg>